<?xml version="1.0" encoding="utf-8"?>
<!-- Generator: Adobe Illustrator 25.2.3, SVG Export Plug-In . SVG Version: 6.00 Build 0)  -->
<svg version="1.1" id="Layer_1" xmlns="http://www.w3.org/2000/svg" xmlns:xlink="http://www.w3.org/1999/xlink" x="0px" y="0px"
	 viewBox="0 0 180.9 137" enable-background="new 0 0 180.9 137" xml:space="preserve">
<path fill="none" stroke="#A5A5A5" stroke-width="3" stroke-miterlimit="10" d="M93.8,96c11.2,0,17.7,0,21.9,0
	c10.6,0,19.1-8.6,19.1-19.1c0-7.7-4.6-14.4-11.2-17.4c-1.9-8.5-9.5-14.8-18.6-14.8c-4.1,0-7.8,1.3-10.9,3.4
	c-3.5-8.1-11.6-13.8-21-13.8c-12.6,0-22.8,10.2-22.8,22.8c0,0.6,0,1.3,0.1,1.9C43.1,61.8,38,68.7,38,76.9C38,87.4,46.5,96,57.1,96
	c3.8,0,12.2,0,21.6,0"/>
<g>
	<line fill="none" stroke="#A5A5A5" stroke-width="3" stroke-miterlimit="10" x1="86" y1="111.9" x2="86" y2="69.3"/>
	<g>
		<polygon fill="#A5A5A5" points="98.3,79.2 96.1,81.3 86,70.5 75.9,81.3 73.8,79.2 86,66.1 		"/>
	</g>
</g>
</svg>
